<svg xmlns="http://www.w3.org/2000/svg" width="800" height="530" viewBox="0 0 800 530" fill="none">
    <style>
        .bg { fill: #232627; stroke: #30363d; stroke-width: 1px; rx: 6px; }
        .host { font: 14px "Hack", monospace, Consolas; fill: #50e423; }
        .base-text { font: 14px "Hack", monospace, Consolas; fill: #fcfcfc }
        .text-blue { font: 14px "Hack", monospace, Consolas; fill: #3daee9 }
    </style>

    <!-- Container Box -->
    <rect width="799" height="529" x="0.5" y="0.5" class="bg" />

    <!-- fastfetch command -->
    <text x="10" y="24" class="base-text"><tspan class="host">loki@github</tspan>:<tspan class="text-blue">~</tspan>$ fastfetch</text>

    <!-- Logo left column, svg copied as plain text with removed bg -->
    <g transform="translate(-180, -30), scale(0.7, 0.7)">
        <svg id="Layer_2" xmlns="http://www.w3.org/2000/svg" viewBox="0 0 71.2963 71.2963"><g id="Components"><g id="_02b0fafc-c8de-4aee-abec-b07c7302e5ae_1"><rect width="71.2963" height="71.2963" style="stroke-width:0px;"/><path d="M38.8398,26.3877c-.7564,0-1.4247-.2844-2.0046-.8517-.58-.5673-.8699-1.2411-.8699-2.0228s.29-1.4569.8699-2.0242c.5799-.5673,1.2481-.8503,2.0046-.8503.7817,0,1.4569.283,2.0228.8503.5673.5673.8517,1.2425.8517,2.0242s-.2844,1.4555-.8517,2.0228c-.5659.5674-1.2411.8517-2.0228.8517ZM36.3435,48.3613l7.4987-18.91h4.9926l-7.4987,18.91h-4.9926ZM20.1652,37.5608l7.3628-8.1095h5.9382l-7.1471,7.9806,7.7144,10.9294h-5.742l-8.1263-10.8005Z" style="fill:#57f287; fill-rule:evenodd; stroke-width:0px;"/></g></g></svg>
    </g>

    <!-- Stats Right Column -->
    <g transform="translate(200, 60)">
        <text class="base-text"><tspan class="text-blue">loki</tspan>@<tspan class="text-blue">github</tspan></text>
        <line x1="0" y1="11" x2="400" y2="11" stroke="#fcfcfc" stroke-width="1" />
        
        <g transform="translate(0, 22)">
            <text x="0" y="12" class="base-text"><tspan class="text-blue">OS</tspan>:
                <tspan class="base-text">Linux, Android, Windows 11</tspan>
            </text>
        </g>
        
        <g transform="translate(0, 44)">
            <text x="0" y="12" class="base-text"><tspan class="text-blue">IDE</tspan>:
                <tspan class="base-text">VSCode, IntelliJ</tspan>
            </text>
        </g>
        
        <g transform="translate(0, 66)">
            <text x="0" y="12" class="base-text"><tspan class="text-blue">Locale</tspan>:
                <tspan class="base-text">de_DE.UTF-8, en_US.UTF-8</tspan>
            </text>
        </g>
        
        <g transform="translate(0, 88)">
            <text x="0" y="12" class="base-text"><tspan class="text-blue">Repositories (public/private)</tspan>:
                <tspan class="base-text">19 (3 / 16)</tspan>
            </text>
        </g>
        
        <g transform="translate(0, 110)">
            <text x="0" y="12" class="base-text"><tspan class="text-blue">Contributed Repositories</tspan>:
                <tspan class="base-text">13</tspan>
            </text>
        </g>
        
        <g transform="translate(0, 132)">
            <text x="0" y="12" class="base-text"><tspan class="text-blue">Contributions Total</tspan>:
                <tspan class="base-text">648</tspan>
            </text>
        </g>
        
        <g transform="translate(0, 154)">
            <text x="0" y="12" class="base-text"><tspan class="text-blue">Contributions (2026)</tspan>:
                <tspan class="base-text">346</tspan>
            </text>
        </g>
        
        <g transform="translate(0, 176)">
            <text x="0" y="12" class="base-text"><tspan class="text-blue">Lines written</tspan>:
                <tspan class="base-text">105068</tspan>
            </text>
        </g>
        

        <!-- Color Theme -->
        <g transform="translate(0, 210)">
            
                <rect x="0" y="0" width="20" height="20" fill="#232627" />
            ,
                <rect x="20" y="0" width="20" height="20" fill="#ed003f" />
            ,
                <rect x="40" y="0" width="20" height="20" fill="#11d116" />
            ,
                <rect x="60" y="0" width="20" height="20" fill="#f67400" />
            ,
                <rect x="80" y="0" width="20" height="20" fill="#1d99f3" />
            ,
                <rect x="100" y="0" width="20" height="20" fill="#9b59b6" />
            ,
                <rect x="120" y="0" width="20" height="20" fill="#1abc9c" />
            ,
                <rect x="140" y="0" width="20" height="20" fill="#fcfcfc" />
            
            
                <rect x="0" y="20" width="20" height="20" fill="#7f8c8d" />
            ,
                <rect x="20" y="20" width="20" height="20" fill="#c0392b" />
            ,
                <rect x="40" y="20" width="20" height="20" fill="#1cdc9a" />
            ,
                <rect x="60" y="20" width="20" height="20" fill="#fdbc4b" />
            ,
                <rect x="80" y="20" width="20" height="20" fill="#3daee9" />
            ,
                <rect x="100" y="20" width="20" height="20" fill="#8e44ad" />
            ,
                <rect x="120" y="20" width="20" height="20" fill="#16a085" />
            ,
                <rect x="140" y="20" width="20" height="20" fill="#ffffff" />
            
        </g>
    </g>


    <!-- LS command -->
    <text x="10" y="340" class="base-text"><tspan class="host">loki@github</tspan>:<tspan class="text-blue">~</tspan>$ ls</text>

    <g transform="translate(10, 364)">
        
            <text x="0" y="0" class="base-text"><tspan class="text-blue">Contributions</tspan></text>
    <text x="160" y="0" class="base-text"><tspan class="text-blue">Loki_DRP</tspan></text>
    <text x="320" y="0" class="base-text"><tspan class="text-blue">LokiLeiche</tspan></text>
    <text x="480" y="0" class="base-text"><tspan class="text-blue">Webserver</tspan></text>
            <text x="0" y="24" class="base-text"><tspan class="host">loki@github</tspan>:<tspan class="text-blue">~</tspan>$ ls ./Contributions</text>
            <g transform="translate(0, 48)">
                <text x="0" y="0" class="base-text"><tspan class="text-blue">alberttheprince/rpemotes-reborn</tspan></text>
    <text x="280" y="0" class="base-text"><tspan class="text-blue">citizenfx/fivem</tspan></text>
    <text x="0" y="18" class="base-text"><tspan class="text-blue">citizenfx/fivem-docs</tspan></text>
    <text x="280" y="18" class="base-text"><tspan class="text-blue">citizenfx/natives</tspan></text>
    <text x="0" y="36" class="base-text"><tspan class="text-blue">fluidcz/fx_serial</tspan></text>
    <text x="280" y="36" class="base-text"><tspan class="text-blue">Sir-Cow/room-for-two</tspan></text>
    <text x="0" y="54" class="base-text"><tspan class="text-blue">tpill90/steam-lancache-prefill</tspan></text>
    <text x="280" y="54" class="base-text"><tspan class="text-blue">winston-yallow/godot-discord-bot</tspan></text>
            </g>
            
        
    </g>
    </svg>